<?xml version="1.0" encoding="utf-8"?>
<!-- Generator: Adobe Illustrator 23.0.3, SVG Export Plug-In . SVG Version: 6.00 Build 0)  -->
<svg width="65" height="65" viewBox="0 0 65 65" fill="none" xmlns="http://www.w3.org/2000/svg">
<path d="M48.75 40.625C46.5951 40.625 44.5285 39.769 43.0048 38.2452C41.4811 36.7215 40.625 34.6549 40.625 32.5C40.625 30.3451 41.4811 28.2785 43.0048 26.7547C44.5285 25.231 46.5951 24.375 48.75 24.375C50.9049 24.375 52.9715 25.231 54.4953 26.7547C56.019 28.2785 56.875 30.3451 56.875 32.5C56.875 34.6549 56.019 36.7215 54.4953 38.2452C52.9715 39.769 50.9049 40.625 48.75 40.625ZM48.75 28.4375C47.6726 28.4375 46.6393 28.8655 45.8774 29.6274C45.1155 30.3892 44.6875 31.4225 44.6875 32.5C44.6875 33.5774 45.1155 34.6107 45.8774 35.3726C46.6393 36.1345 47.6726 36.5625 48.75 36.5625C49.8275 36.5625 50.8608 36.1345 51.6227 35.3726C52.3845 34.6107 52.8125 33.5774 52.8125 32.5C52.8125 31.4225 52.3845 30.3892 51.6227 29.6274C50.8608 28.8655 49.8275 28.4375 48.75 28.4375ZM32.0938 17.0219C30.8216 17.0317 29.5648 16.7426 28.4247 16.1779C27.2846 15.6132 26.2931 14.7886 25.53 13.7707C24.7668 12.7527 24.2534 11.5697 24.0311 10.317C23.8088 9.06432 23.8837 7.77692 24.2499 6.55849C24.6161 5.34007 25.2633 4.22466 26.1394 3.3021C27.0155 2.37955 28.096 1.67562 29.2939 1.24702C30.4918 0.818421 31.7736 0.67712 33.0361 0.834498C34.2986 0.991877 35.5065 1.44354 36.5625 2.1531C38.0034 3.12127 39.0963 4.52547 39.6811 6.15994C40.2659 7.79441 40.3119 9.57322 39.8122 11.2357C39.3126 12.8982 38.2936 14.3569 36.9046 15.3982C35.5156 16.4394 33.8297 17.0085 32.0938 17.0219ZM32.0938 4.83435C31.0172 4.83705 29.9857 5.26694 29.2259 6.02961C28.4661 6.79228 28.0401 7.82536 28.0414 8.90192C28.0428 9.97848 28.4714 11.0105 29.2331 11.7713C29.9948 12.532 31.0274 12.9593 32.1039 12.9593C33.1805 12.9593 34.213 12.532 34.9748 11.7713C35.7365 11.0105 36.1651 9.97848 36.1664 8.90192C36.1678 7.82536 35.7418 6.79228 34.9819 6.02961C34.2221 5.26694 33.1907 4.83705 32.1141 4.83435H32.0938ZM32.1141 64.2281C29.9592 64.2505 27.8837 63.4159 26.3442 61.908C24.8046 60.4 23.9272 58.3423 23.9048 56.1874C23.8824 54.0325 24.717 51.957 26.2249 50.4175C27.7329 48.8779 29.7906 48.0005 31.9455 47.9781C33.0125 47.967 34.0712 48.1662 35.0612 48.5643C36.0512 48.9624 36.9531 49.5516 37.7154 50.2983C38.4777 51.0449 39.0855 51.9344 39.5041 52.9159C39.9226 53.8975 40.1437 54.9518 40.1548 56.0188C40.1659 57.0858 39.9667 58.1445 39.5686 59.1345C39.1705 60.1245 38.5813 61.0264 37.8346 61.7887C37.088 62.551 36.1985 63.1588 35.217 63.5774C34.2354 63.9959 33.1811 64.217 32.1141 64.2281ZM32.1141 52.0406C31.0759 52.1423 30.1167 52.6394 29.4351 53.429C28.7534 54.2186 28.4016 55.2402 28.4525 56.282C28.5034 57.3239 28.9532 58.3063 29.7085 59.0256C30.4639 59.745 31.4671 60.1462 32.5102 60.1462C33.5533 60.1462 34.5564 59.745 35.3118 59.0256C36.0672 58.3063 36.5169 57.3239 36.5678 56.282C36.6188 55.2402 36.267 54.2186 35.5853 53.429C34.9037 52.6394 33.9444 52.1423 32.9063 52.0406C32.6361 52.0135 32.3639 52.0135 32.0938 52.0406H32.1141Z" fill="#B3B3B3"/>
<path d="M36.5625 34.5312V30.4688H24.0906C23.7769 29.237 23.1786 28.096 22.3438 27.1375L27.0359 20.15L23.6234 17.875L18.9312 24.8625C18.0713 24.5502 17.1648 24.3854 16.25 24.375C14.0951 24.375 12.0285 25.231 10.5048 26.7548C8.98102 28.2785 8.125 30.3451 8.125 32.5C8.125 34.6549 8.98102 36.7215 10.5048 38.2452C12.0285 39.769 14.0951 40.625 16.25 40.625C17.1648 40.6146 18.0713 40.4498 18.9312 40.1375L23.6234 47.125L26.9953 44.85L22.3438 37.8625C23.1786 36.904 23.7769 35.763 24.0906 34.5312H36.5625ZM12.1875 32.5C12.1875 31.4226 12.6155 30.3892 13.3774 29.6274C14.1392 28.8655 15.1726 28.4375 16.25 28.4375C17.3274 28.4375 18.3608 28.8655 19.1226 29.6274C19.8845 30.3892 20.3125 31.4226 20.3125 32.5C20.3125 33.5774 19.8845 34.6108 19.1226 35.3726C18.3608 36.1345 17.3274 36.5625 16.25 36.5625C15.1726 36.5625 14.1392 36.1345 13.3774 35.3726C12.6155 34.6108 12.1875 33.5774 12.1875 32.5Z" fill="#B3B3B3"/>
</svg>
