<svg width="26" height="26" viewBox="0 0 26 26" fill="none" xmlns="http://www.w3.org/2000/svg">
<path d="M21.125 17.725C19.585 17.725 18.2938 18.7585 17.8765 20.1625H8.12339C7.9622 19.6223 7.66899 19.13 7.2695 18.7305C6.87001 18.331 6.37772 18.0378 5.8375 17.8766V15.4375C5.8375 14.6249 6.4992 13.9625 7.3125 13.9625H18.6875C20.5627 13.9625 22.0875 12.4377 22.0875 10.5625V8.12357C23.4916 7.70691 24.525 6.41492 24.525 4.875C24.525 2.99978 23.0002 1.475 21.125 1.475C19.2498 1.475 17.725 2.99978 17.725 4.875C17.725 6.415 18.7585 7.70616 20.1625 8.12351V10.5625C20.1625 11.3758 19.5008 12.0375 18.6875 12.0375H7.3125C5.43728 12.0375 3.9125 13.5623 3.9125 15.4375V17.8764C2.50842 18.2931 1.475 19.5851 1.475 21.125C1.475 23.0002 2.99978 24.525 4.875 24.525C6.415 24.525 7.70616 23.4915 8.12351 22.0875H17.8764C18.2931 23.4916 19.5851 24.525 21.125 24.525C23.0002 24.525 24.525 23.0002 24.525 21.125C24.525 19.2498 23.0002 17.725 21.125 17.725ZM19.65 4.875C19.65 4.06242 20.3117 3.4 21.125 3.4C21.9383 3.4 22.6 4.06242 22.6 4.875C22.6 5.68758 21.9383 6.35 21.125 6.35C20.3117 6.35 19.65 5.68834 19.65 4.875ZM4.875 22.6C4.06166 22.6 3.4 21.9383 3.4 21.125C3.4 20.3117 4.06166 19.65 4.875 19.65C5.6883 19.65 6.35 20.3124 6.35 21.125C6.35 21.9376 5.6883 22.6 4.875 22.6ZM21.125 22.6C20.3117 22.6 19.65 21.9383 19.65 21.125C19.65 20.3117 20.3117 19.65 21.125 19.65C21.9383 19.65 22.6 20.3124 22.6 21.125C22.6 21.9376 21.9383 22.6 21.125 22.6Z" fill="white" stroke="white" stroke-width="0.3"/>
<path d="M9.30756 10.6686L9.41363 10.7746L9.51969 10.6686L10.6686 9.51969L10.7746 9.41363L10.6686 9.30756L7.85186 6.49085C8.12626 5.99724 8.27211 5.44178 8.275 4.87577V4.875C8.275 2.99978 6.75022 1.475 4.875 1.475C2.99978 1.475 1.475 2.99978 1.475 4.875C1.475 6.75022 2.99978 8.275 4.875 8.275C5.46411 8.275 6.01034 8.1151 6.49031 7.85132L9.30756 10.6686ZM4.875 3.4C5.6883 3.4 6.35 4.06242 6.35 4.875C6.35 5.68758 5.6883 6.35 4.875 6.35C4.06166 6.35 3.4 5.68834 3.4 4.875C3.4 4.06166 4.06166 3.4 4.875 3.4Z" fill="white" stroke="white" stroke-width="0.3"/>
</svg>
