<?xml version="1.0" encoding="utf-8"?>
<!-- Generator: Adobe Illustrator 23.0.3, SVG Export Plug-In . SVG Version: 6.00 Build 0)  -->
<svg width="72" height="72" viewBox="0 0 72 72" fill="none" xmlns="http://www.w3.org/2000/svg">
<path d="M0.795781 50V22.56H7.99578L11.3958 37.68C11.5024 38.1333 11.6091 38.7067 11.7158 39.4C11.8491 40.0933 11.9691 40.7867 12.0758 41.48C12.2091 42.1467 12.3024 42.72 12.3558 43.2C12.4358 43.6533 12.4758 43.88 12.4758 43.88H12.6358C12.6358 43.88 12.6624 43.64 12.7158 43.16C12.7958 42.68 12.8758 42.0933 12.9558 41.4C13.0624 40.68 13.1691 39.9867 13.2758 39.32C13.3824 38.6267 13.4758 38.08 13.5558 37.68L16.9158 22.56H23.8758V50H19.1558V32.52C19.1558 32.2 19.1691 31.8 19.1958 31.32C19.2224 30.84 19.2358 30.36 19.2358 29.88C19.2624 29.3733 19.2891 28.96 19.3158 28.64C19.3424 28.2933 19.3558 28.12 19.3558 28.12H19.1958C19.1158 28.4667 19.0358 28.8267 18.9558 29.2C18.8758 29.5467 18.7958 29.9067 18.7158 30.28C18.6358 30.6267 18.5558 30.9867 18.4758 31.36C18.3958 31.7067 18.3158 32.0667 18.2358 32.44L14.3958 50H9.95578L6.07578 32.36C5.99578 32.0133 5.91578 31.6667 5.83578 31.32C5.75578 30.9467 5.67578 30.5867 5.59578 30.24C5.51578 29.8933 5.43578 29.5467 5.35578 29.2C5.27578 28.8267 5.19578 28.4667 5.11578 28.12H4.95578C4.95578 28.12 4.96911 28.2933 4.99578 28.64C5.02245 28.9867 5.03578 29.4133 5.03578 29.92C5.06245 30.4267 5.08912 30.92 5.11578 31.4C5.14245 31.88 5.15578 32.2533 5.15578 32.52V50H0.795781ZM33.4605 50V27.12H26.6605V22.56H45.3805V27.12H38.5805V50H33.4605ZM48.1395 50V22.56H55.3395L58.7395 37.68C58.8462 38.1333 58.9529 38.7067 59.0595 39.4C59.1929 40.0933 59.3129 40.7867 59.4195 41.48C59.5529 42.1467 59.6462 42.72 59.6995 43.2C59.7795 43.6533 59.8195 43.88 59.8195 43.88H59.9795C59.9795 43.88 60.0062 43.64 60.0595 43.16C60.1395 42.68 60.2195 42.0933 60.2995 41.4C60.4062 40.68 60.5129 39.9867 60.6195 39.32C60.7262 38.6267 60.8195 38.08 60.8995 37.68L64.2595 22.56H71.2195V50H66.4995V32.52C66.4995 32.2 66.5129 31.8 66.5395 31.32C66.5662 30.84 66.5795 30.36 66.5795 29.88C66.6062 29.3733 66.6329 28.96 66.6595 28.64C66.6862 28.2933 66.6995 28.12 66.6995 28.12H66.5395C66.4595 28.4667 66.3795 28.8267 66.2995 29.2C66.2195 29.5467 66.1395 29.9067 66.0595 30.28C65.9795 30.6267 65.8995 30.9867 65.8195 31.36C65.7395 31.7067 65.6595 32.0667 65.5795 32.44L61.7395 50H57.2995L53.4195 32.36C53.3395 32.0133 53.2595 31.6667 53.1795 31.32C53.0995 30.9467 53.0195 30.5867 52.9395 30.24C52.8595 29.8933 52.7795 29.5467 52.6995 29.2C52.6195 28.8267 52.5395 28.4667 52.4595 28.12H52.2995C52.2995 28.12 52.3129 28.2933 52.3395 28.64C52.3662 28.9867 52.3795 29.4133 52.3795 29.92C52.4062 30.4267 52.4329 30.92 52.4595 31.4C52.4862 31.88 52.4995 32.2533 52.4995 32.52V50H48.1395Z" fill="#B3B3B3"/>
<path d="M-16 36.5C-16 23.066 -16 16.346 -8.3861 12.173C-0.77221 8 11.4834 8 36 8C60.5112 8 72.7722 8 80.3861 12.173C88 16.346 88 23.063 88 36.5C88 49.934 88 56.654 80.3861 60.827C72.7722 65 60.5166 65 36 65C11.4888 65 -0.77221 65 -8.3861 60.827C-16 56.654 -16 49.937 -16 36.5Z" stroke="#B3B3B3" stroke-width="3" stroke-linecap="round" stroke-linejoin="round"/>
</svg>
