<?xml version="1.0" encoding="utf-8"?>
<!-- Generator: Adobe Illustrator 23.0.3, SVG Export Plug-In . SVG Version: 6.00 Build 0)  -->
<svg width="84" height="84" viewBox="0 0 84 84" fill="none" xmlns="http://www.w3.org/2000/svg">
<path d="M70 8.26001H14C10.08 8.26001 7 11.34 7 15.26V52.22C7 56.14 10.08 59.22 14 59.22H70C73.92 59.22 77 56.14 77 52.22V15.26C77 11.48 73.92 8.26001 70 8.26001ZM74.2 52.22C74.2 54.6 72.38 56.42 70 56.42H14C11.62 56.42 9.8 54.6 9.8 52.22V15.26C9.8 12.88 11.62 11.06 14 11.06H70C72.38 11.06 74.2 12.88 74.2 15.26V52.22Z" fill="#AEAEAE"/>
<path d="M49 31.08L38.78 23.8C37.8 23.1 36.4 22.96 35.28 23.52C34.16 24.08 33.46 25.2 33.46 26.46V40.88C33.46 42.14 34.16 43.26 35.28 43.82C35.7 44.1 36.26 44.24 36.82 44.24C37.52 44.24 38.22 44.1 38.78 43.68L49.14 36.54C49.98 35.98 50.54 34.86 50.54 33.88C50.54 32.62 49.98 31.64 49 31.08ZM47.46 34.16L37.1 41.3C36.82 41.44 36.68 41.44 36.54 41.3C36.4 41.3 36.26 41.16 36.26 40.88V26.6C36.26 26.32 36.4 26.18 36.54 26.18C36.54 26.18 36.68 26.18 36.82 26.18C36.96 26.18 36.96 26.18 37.1 26.32L47.46 33.46C47.6 33.6 47.74 33.74 47.74 33.88C47.74 33.88 47.6 34.02 47.46 34.16ZM14.7 63.7C13.86 63.7 13.3 64.26 13.3 65.1V68.32H8.4C7.56 68.32 7 68.88 7 69.72C7 70.56 7.56 71.12 8.4 71.12H13.3V74.34C13.3 75.18 13.86 75.74 14.7 75.74C15.54 75.74 16.1 75.18 16.1 74.34V71.12H75.6C76.44 71.12 77 70.56 77 69.72C77 68.88 76.44 68.32 75.6 68.32H16.1V65.1C16.1 64.4 15.54 63.7 14.7 63.7Z" fill="#AEAEAE"/>
</svg>
