<?xml version="1.0" encoding="utf-8"?>
<!-- Generator: Adobe Illustrator 23.0.3, SVG Export Plug-In . SVG Version: 6.00 Build 0)  -->
<svg width="97" height="97" viewBox="0 0 97 97" fill="none" xmlns="http://www.w3.org/2000/svg">
<path d="M32.8062 66.8451C33.6872 66.8451 34.4255 66.5461 35.021 65.9479C35.6138 65.3524 35.9102 64.6128 35.9102 63.729C35.9102 62.8452 35.6111 62.107 35.0129 61.5142C34.4148 60.9214 33.6751 60.625 32.794 60.625C31.913 60.625 31.1747 60.9241 30.5792 61.5223C29.9837 62.1204 29.6873 62.8601 29.69 63.7411C29.6927 64.6222 29.9918 65.3592 30.5873 65.9519C31.1828 66.5447 31.9224 66.8451 32.8062 66.8451ZM32.8062 51.6081C33.6872 51.6081 34.4255 51.3103 35.021 50.7149C35.6138 50.1167 35.9102 49.3757 35.9102 48.4919C35.9102 47.6082 35.6111 46.8712 35.0129 46.2811C34.4148 45.6911 33.6751 45.3947 32.794 45.392C31.913 45.3893 31.1747 45.687 30.5792 46.2852C29.9837 46.8834 29.6873 47.6243 29.69 48.5081C29.6927 49.3919 29.9918 50.1288 30.5873 50.7189C31.1828 51.309 31.9224 51.6054 32.8062 51.6081ZM32.8062 36.375C33.6872 36.375 34.4255 36.0773 35.021 35.4818C35.6138 34.8836 35.9102 34.1427 35.9102 33.2589C35.9102 32.3751 35.6111 31.6382 35.0129 31.0481C34.4148 30.458 33.6751 30.1616 32.794 30.1589C31.913 30.1562 31.1747 30.454 30.5792 31.0521C29.9864 31.6503 29.69 32.3899 29.69 33.271C29.69 34.1521 29.9891 34.8904 30.5873 35.4859C31.1855 36.0813 31.9251 36.3777 32.8062 36.375ZM45.2343 65.7579H66.9987V61.7163H45.2343V65.7579ZM45.2343 50.5209H66.9987V46.4792H45.2343V50.5209ZM45.2343 35.2838H66.9987V31.2421H45.2343V35.2838ZM22.698 80.8334C20.8361 80.8334 19.2828 80.2109 18.0379 78.9661C16.7931 77.7213 16.1693 76.1666 16.1666 74.302V22.698C16.1666 20.8362 16.7904 19.2828 18.0379 18.038C19.2854 16.7931 20.8388 16.1694 22.698 16.1667H74.306C76.1652 16.1667 77.7185 16.7905 78.966 18.038C80.2136 19.2855 80.836 20.8389 80.8333 22.698V74.3061C80.8333 76.1652 80.2109 77.7186 78.966 78.9661C77.7212 80.2136 76.1665 80.836 74.302 80.8334H22.698ZM22.698 76.7917H74.306C74.9257 76.7917 75.4956 76.533 76.0156 76.0157C76.5357 75.4984 76.7943 74.9271 76.7916 74.302V22.698C76.7916 22.0756 76.533 21.5044 76.0156 20.9844C75.4983 20.4643 74.9271 20.2057 74.302 20.2084H22.698C22.0755 20.2084 21.5043 20.467 20.9843 20.9844C20.4643 21.5017 20.2056 22.0729 20.2083 22.698V74.3061C20.2083 74.9258 20.467 75.4957 20.9843 76.0157C21.5016 76.5357 22.0715 76.7944 22.6939 76.7917" fill="#B3B3B3"/>
</svg>
